{
    "asset" : {
        "generator" : "Khronos glTF Blender I/O v0.9.36",
        "version" : "2.0"
    },
    "extensionsUsed" : [
        "KHR_lights_punctual"
    ],
    "extensionsRequired" : [
        "KHR_lights_punctual"
    ],
    "extensions" : {
        "KHR_lights_punctual" : {
            "lights" : [
                {
                    "color" : [
                        1,
                        1,
                        1
                    ],
                    "intensity" : 1000,
                    "type" : "point",
                    "name" : "Light"
                }
            ]
        }
    },
    "scene" : 0,
    "scenes" : [
        {
            "extras" : {
                "glTF2ExportSettings" : {
                    "export_all_influences" : 0,
                    "export_animations" : 1,
                    "export_apply" : 0,
                    "export_cameras" : 1,
                    "export_colors" : 1,
                    "export_copyright" : "",
                    "export_current_frame" : 0,
                    "export_displacement" : 0,
                    "export_draco_mesh_compression_enable" : 0,
                    "export_draco_mesh_compression_level" : 6,
                    "export_draco_normal_quantization" : 10,
                    "export_draco_position_quantization" : 14,
                    "export_draco_texcoord_quantization" : 12,
                    "export_extras" : 1,
                    "export_force_sampling" : 0,
                    "export_format" : "GLTF_SEPARATE",
                    "export_frame_range" : 1,
                    "export_frame_step" : 1,
                    "export_image_format" : "NAME",
                    "export_lights" : 1,
                    "export_materials" : 1,
                    "export_morph" : 1,
                    "export_morph_normal" : 1,
                    "export_morph_tangent" : 0,
                    "export_normals" : 1,
                    "export_selected" : 0,
                    "export_skins" : 1,
                    "export_tangents" : 0,
                    "export_texcoords" : 1,
                    "export_yup" : 1
                }
            },
            "name" : "Scene",
            "nodes" : [
                1,
                3,
                7
            ]
        }
    ],
    "nodes" : [
        {
            "extensions" : {
                "KHR_lights_punctual" : {
                    "light" : 0
                }
            },
            "name" : "Light_Orientation",
            "rotation" : [
                -0.7071067690849304,
                0,
                0,
                0.7071067690849304
            ]
        },
        {
            "children" : [
                0
            ],
            "name" : "Light",
            "rotation" : [
                0.16907575726509094,
                0.7558803558349609,
                -0.27217137813568115,
                0.570947527885437
            ],
            "translation" : [
                4.076245307922363,
                5.903861999511719,
                -1.0054539442062378
            ]
        },
        {
            "camera" : 0,
            "name" : "Camera_Orientation",
            "rotation" : [
                -0.7071067690849304,
                0,
                0,
                0.7071067690849304
            ]
        },
        {
            "children" : [
                2
            ],
            "name" : "Camera",
            "rotation" : [
                0.483536034822464,
                0.33687159419059753,
                -0.20870360732078552,
                0.7804827094078064
            ],
            "translation" : [
                7.358891487121582,
                4.958309173583984,
                6.925790786743164
            ]
        },
        {
            "extras" : {
                "arm_mobile" : 0
            },
            "mesh" : 0,
            "name" : "Moon",
            "translation" : [
                0,
                0,
                -0.5
            ]
        },
        {
            "children" : [
                4
            ],
            "extras" : {
                "arm_traitlist" : [
                    {
                        "is_object" : 1,
                        "type_prop" : 4,
                        "node_tree_prop" : {
                            "name" : "EarthRotation",
                            "type" : "ArmLogicTree"
                        },
                        "name" : "EarthRotation"
                    }
                ],
                "arm_traitlist_index" : 0
            },
            "mesh" : 1,
            "name" : "Earth",
            "translation" : [
                0,
                0,
                -2.5
            ]
        },
        {
            "extras" : {
                "arm_traitlist" : [
                    {
                        "is_object" : 1,
                        "type_prop" : 4,
                        "node_tree_prop" : {
                            "name" : "RockMovement",
                            "type" : "ArmLogicTree"
                        },
                        "name" : "RockMovement"
                    }
                ],
                "arm_traitlist_index" : 0
            },
            "mesh" : 2,
            "name" : "Rock",
            "translation" : [
                0,
                0,
                -0.800000011920929
            ]
        },
        {
            "children" : [
                5,
                6
            ],
            "extras" : {
                "arm_traitlist" : [
                    {
                        "is_object" : 1,
                        "type_prop" : 4,
                        "node_tree_prop" : {
                            "name" : "SunRotation",
                            "type" : "ArmLogicTree"
                        },
                        "name" : "SunRotation"
                    },
                    {
                        "is_object" : 1,
                        "type_prop" : 4,
                        "node_tree_prop" : {
                            "name" : "WorldShrinking",
                            "type" : "ArmLogicTree"
                        },
                        "name" : "WorldShrinking"
                    }
                ],
                "arm_traitlist_index" : 1
            },
            "mesh" : 3,
            "name" : "Sun"
        }
    ],
    "cameras" : [
        {
            "name" : "Camera",
            "perspective" : {
                "yfov" : 0.39959648408210363,
                "zfar" : 100,
                "znear" : 0.10000000149011612
            },
            "type" : "perspective"
        }
    ],
    "meshes" : [
        {
            "extras" : {
                "arm_cached" : 0
            },
            "name" : "Icosphere.002",
            "primitives" : [
                {
                    "attributes" : {
                        "POSITION" : 0,
                        "NORMAL" : 1,
                        "TEXCOORD_0" : 2
                    },
                    "indices" : 3
                }
            ]
        },
        {
            "extras" : {
                "arm_cached" : 0
            },
            "name" : "Icosphere.001",
            "primitives" : [
                {
                    "attributes" : {
                        "POSITION" : 4,
                        "NORMAL" : 5,
                        "TEXCOORD_0" : 6
                    },
                    "indices" : 3
                }
            ]
        },
        {
            "extras" : {
                "arm_cached" : 0
            },
            "name" : "Icosphere.003",
            "primitives" : [
                {
                    "attributes" : {
                        "POSITION" : 7,
                        "NORMAL" : 8,
                        "TEXCOORD_0" : 9
                    },
                    "indices" : 10
                }
            ]
        },
        {
            "extras" : {
                "arm_cached" : 0
            },
            "name" : "Icosphere",
            "primitives" : [
                {
                    "attributes" : {
                        "POSITION" : 11,
                        "NORMAL" : 12,
                        "TEXCOORD_0" : 13
                    },
                    "indices" : 3
                }
            ]
        }
    ],
    "accessors" : [
        {
            "bufferView" : 0,
            "componentType" : 5126,
            "count" : 960,
            "max" : [
                0.05000000074505806,
                0.05000000074505806,
                0.05000000447034836
            ],
            "min" : [
                -0.05000000447034836,
                -0.05000000074505806,
                -0.05000000447034836
            ],
            "type" : "VEC3"
        },
        {
            "bufferView" : 1,
            "componentType" : 5126,
            "count" : 960,
            "type" : "VEC3"
        },
        {
            "bufferView" : 2,
            "componentType" : 5126,
            "count" : 960,
            "type" : "VEC2"
        },
        {
            "bufferView" : 3,
            "componentType" : 5123,
            "count" : 960,
            "type" : "SCALAR"
        },
        {
            "bufferView" : 4,
            "componentType" : 5126,
            "count" : 960,
            "max" : [
                0.20000000298023224,
                0.20000000298023224,
                0.20000001788139343
            ],
            "min" : [
                -0.20000001788139343,
                -0.20000000298023224,
                -0.20000001788139343
            ],
            "type" : "VEC3"
        },
        {
            "bufferView" : 5,
            "componentType" : 5126,
            "count" : 960,
            "type" : "VEC3"
        },
        {
            "bufferView" : 6,
            "componentType" : 5126,
            "count" : 960,
            "type" : "VEC2"
        },
        {
            "bufferView" : 7,
            "componentType" : 5126,
            "count" : 240,
            "max" : [
                0.09510578960180283,
                0.10000000149011612,
                0.10000000894069672
            ],
            "min" : [
                -0.09510578960180283,
                -0.10000000149011612,
                -0.10000000894069672
            ],
            "type" : "VEC3"
        },
        {
            "bufferView" : 8,
            "componentType" : 5126,
            "count" : 240,
            "type" : "VEC3"
        },
        {
            "bufferView" : 9,
            "componentType" : 5126,
            "count" : 240,
            "type" : "VEC2"
        },
        {
            "bufferView" : 10,
            "componentType" : 5123,
            "count" : 240,
            "type" : "SCALAR"
        },
        {
            "bufferView" : 11,
            "componentType" : 5126,
            "count" : 960,
            "max" : [
                0.5,
                0.5,
                0.4999999701976776
            ],
            "min" : [
                -0.4999999701976776,
                -0.5,
                -0.4999999701976776
            ],
            "type" : "VEC3"
        },
        {
            "bufferView" : 12,
            "componentType" : 5126,
            "count" : 960,
            "type" : "VEC3"
        },
        {
            "bufferView" : 13,
            "componentType" : 5126,
            "count" : 960,
            "type" : "VEC2"
        }
    ],
    "bufferViews" : [
        {
            "buffer" : 0,
            "byteLength" : 11520,
            "byteOffset" : 0
        },
        {
            "buffer" : 0,
            "byteLength" : 11520,
            "byteOffset" : 11520
        },
        {
            "buffer" : 0,
            "byteLength" : 7680,
            "byteOffset" : 23040
        },
        {
            "buffer" : 0,
            "byteLength" : 1920,
            "byteOffset" : 30720
        },
        {
            "buffer" : 0,
            "byteLength" : 11520,
            "byteOffset" : 32640
        },
        {
            "buffer" : 0,
            "byteLength" : 11520,
            "byteOffset" : 44160
        },
        {
            "buffer" : 0,
            "byteLength" : 7680,
            "byteOffset" : 55680
        },
        {
            "buffer" : 0,
            "byteLength" : 2880,
            "byteOffset" : 63360
        },
        {
            "buffer" : 0,
            "byteLength" : 2880,
            "byteOffset" : 66240
        },
        {
            "buffer" : 0,
            "byteLength" : 1920,
            "byteOffset" : 69120
        },
        {
            "buffer" : 0,
            "byteLength" : 480,
            "byteOffset" : 71040
        },
        {
            "buffer" : 0,
            "byteLength" : 11520,
            "byteOffset" : 71520
        },
        {
            "buffer" : 0,
            "byteLength" : 11520,
            "byteOffset" : 83040
        },
        {
            "buffer" : 0,
            "byteLength" : 7680,
            "byteOffset" : 94560
        }
    ],
    "buffers" : [
        {
            "byteLength" : 102240,
            "uri" : "transform-test.bin"
        }
    ]
}
